# xmcd
# 
# Track frame offsets:
#     150
#     21498
#     31780
#     43299
#     59982
#     73021
#     89516
#     101629
#     115447
#     130027
#     143878
#     157904
#     169714
#     183127
#     196019
#     211095
#     224894
# 
# Disc length: 3159
# 
# Revision: 2
# Processed by: cddbd v1.5.2PL0 Copyright (c) Steve Scherf et al.
# Submitted via: fre:ac v1.0.17
# 
DISCID=000c5511
DTITLE=Various Artist - Pure... Blues CD 3
DYEAR=2010
DGENRE=Blues
TTITLE0=Vaughan Brothers - Hard To Be
TTITLE1=Top Topham - Sawbuk
TTITLE2=Eddie 'Cleanhead' Vinson - Cleanhead Blues
TTITLE3=Etta James - Hold Me (Just A Little Longer Tonight)
TTITLE4=Johnny Shines - Babt Don't You Thibk I Know
TTITLE5=Joe Williams - Everyday I Have The Blues
TTITLE6=Big Maceo Merriweather - Broke And Hungry Blues
TTITLE7=Robert Lee McCoy - Prowling Night Hawk
TTITLE8=Sonny Boy Williamson - Deep Down In The Ground
TTITLE9=Blind Boy Fuller - Rag Mama Rag
TTITLE10=Tommy McClenna -  Love My Baby
TTITLE11=Arthur 'Big Boy' Crudup - Mean Old Frisco Blues
TTITLE12=Robert Johnson - Sweet Home Chicago
TTITLE13=Joe Turner - Careless Love
TTITLE14=Big Bill Broonzy - Friendless Blues
TTITLE15=Washboard Sam And Her Washboard Band - She's Makin' A Fool Out Of Me
TTITLE16=Billie Holiday And Her Orchestra - Billie's Blues (I Love My Man)
EXTD=
EXTT0=
EXTT1=
EXTT2=
EXTT3=
EXTT4=
EXTT5=
EXTT6=
EXTT7=
EXTT8=
EXTT9=
EXTT10=
EXTT11=
EXTT12=
EXTT13=
EXTT14=
EXTT15=
EXTT16=
PLAYORDER=
